<?xml version="1.0" standalone="no"?><!DOCTYPE svg PUBLIC "-//W3C//DTD SVG 1.1//EN" "http://www.w3.org/Graphics/SVG/1.1/DTD/svg11.dtd"><svg t="1649519310636" class="icon" viewBox="0 0 1024 1024" version="1.1" xmlns="http://www.w3.org/2000/svg" p-id="4859" xmlns:xlink="http://www.w3.org/1999/xlink" width="200" height="200"><defs><style type="text/css">@font-face { font-family: feedback-iconfont; src: url("//at.alicdn.com/t/font_1031158_u69w8yhxdu.woff2?t=1630033759944") format("woff2"), url("//at.alicdn.com/t/font_1031158_u69w8yhxdu.woff?t=1630033759944") format("woff"), url("//at.alicdn.com/t/font_1031158_u69w8yhxdu.ttf?t=1630033759944") format("truetype"); }
</style></defs><path d="M556.032 970.752H936.96c14.848 0 27.136-12.288 27.136-27.136v-379.904c0-14.848-12.288-27.136-27.136-27.136h-107.52v-4.096c0-44.032-35.84-79.36-79.36-79.36-44.032 0-79.36 35.328-79.36 79.36v4.096h-111.104c-17.408 0-31.232 13.824-31.232 31.232v76.288c48.64 15.36 83.456 60.928 83.456 114.176s-35.328 98.816-83.456 114.176v71.68c0 14.848 12.288 26.624 27.648 26.624z" fill="#384E72" p-id="4860"></path><path d="M492.544 678.4h-4.096v-111.104c0-17.408-13.824-31.232-31.232-31.232H380.928c-15.872 48.128-60.928 82.944-114.176 82.944s-98.304-34.816-114.176-82.944H84.992c-17.408 0-31.232 13.824-31.232 31.232v372.736c0 17.408 13.824 31.232 31.232 31.232h372.224c17.408 0 31.232-13.824 31.232-31.232v-102.912h4.096c13.312 0 25.088-3.072 36.352-8.704 25.6-13.312 43.008-39.936 43.008-70.656 0-30.72-17.408-57.344-43.008-70.656-11.264-5.632-23.552-8.704-36.352-8.704zM525.312 353.792h4.096v111.104c0 17.408 13.824 31.232 31.232 31.232h76.288c15.872-48.128 60.928-82.944 114.176-82.944s98.304 34.816 114.176 82.944h68.096c17.408 0 31.232-13.824 31.232-31.232V92.16c0-17.408-13.824-31.232-31.232-31.232h-372.224c-17.408 0-31.232 13.824-31.232 31.232v102.912h-4.096c-13.312 0-25.088 3.072-36.352 8.704-25.6 13.312-43.008 39.936-43.008 70.656 0 30.72 17.408 57.344 43.008 70.656 10.752 5.632 23.04 8.704 35.84 8.704z" fill="#8AA2B8" p-id="4861"></path><path d="M457.216 60.928H84.48c-17.408 0-31.232 13.824-31.232 31.232v372.736c0 17.408 13.824 31.232 31.232 31.232h102.912v4.608c0 13.312 3.072 25.6 8.704 36.352 13.312 25.6 39.936 43.008 70.656 43.008 30.72 0 57.344-17.408 70.656-43.008 5.632-10.752 8.704-23.552 8.704-36.352v-4.608h111.104c17.408 0 31.232-13.824 31.232-31.232v-76.8C440.32 372.224 405.504 327.168 405.504 273.92S440.32 175.616 488.448 159.744V92.16c-0.512-17.408-14.336-31.232-31.232-31.232z" fill="#384E72" p-id="4862"></path></svg>